<svg width="53" height="53" viewBox="0 0 53 53" fill="none" xmlns="http://www.w3.org/2000/svg">
<rect x="0.5" y="0.5" width="52" height="52" rx="9.5" stroke="#06B6D4"/>
<path fill-rule="evenodd" clip-rule="evenodd" d="M40.3997 11.9519C41.0092 12.5614 41.3516 13.388 41.3516 14.25V33.75C41.3516 34.612 41.0092 35.4386 40.3997 36.0481C39.7902 36.6576 38.9635 37 38.1016 37H25.3516V35.375H38.1016C38.5325 35.375 38.9459 35.2038 39.2506 34.899C39.5554 34.5943 39.7266 34.181 39.7266 33.75V14.25C39.7266 13.819 39.5554 13.4057 39.2506 13.101C38.9459 12.7962 38.5325 12.625 38.1016 12.625H25.1016C24.6706 12.625 24.2573 12.7962 23.9525 13.101C23.6478 13.4057 23.4766 13.819 23.4766 14.25V26H21.8516V14.25C21.8516 13.388 22.194 12.5614 22.8035 11.9519C23.413 11.3424 24.2396 11 25.1016 11H38.1016C38.9635 11 39.7902 11.3424 40.3997 11.9519Z" fill="#06B6D4"/>
<path d="M13.7929 36.4494L13.7929 36.4494C14.3491 35.3581 15.1019 34.4 16.0335 33.5937C15.2454 32.6579 14.7696 31.4515 14.7696 30.1364C14.7695 27.1652 17.1955 24.75 20.1758 24.75C23.1561 24.75 25.582 27.1652 25.582 30.1364C25.582 31.4513 25.1063 32.6576 24.3184 33.5933C25.2499 34.3998 26.0027 35.358 26.5588 36.4494C27.2514 37.8088 27.6016 39.3066 27.6016 40.8984C27.6016 41.2263 27.3357 41.4922 27.0078 41.4922C26.6799 41.4922 26.4141 41.2263 26.4141 40.8984C26.4141 38.3079 25.3664 36.0264 23.4548 34.4163C22.5448 35.1099 21.4075 35.5228 20.1758 35.5228C18.9441 35.5228 17.807 35.1101 16.8971 34.4166C14.9853 36.0265 13.9375 38.3079 13.9375 40.8984C13.9375 41.2263 13.6717 41.4922 13.3438 41.4922C13.0158 41.4922 12.75 41.2263 12.75 40.8984C12.75 39.3066 13.1002 37.8088 13.7929 36.4494ZM24.3945 30.1364C24.3945 27.8224 22.5028 25.9375 20.1758 25.9375C17.8487 25.9375 15.957 27.8224 15.957 30.1364C15.957 32.4504 17.8487 34.3353 20.1758 34.3353C22.5028 34.3353 24.3945 32.4504 24.3945 30.1364Z" fill="#06B6D4" stroke="#06B6D4" stroke-width="0.5"/>
<path d="M37.3931 16.5643L36.3572 16.4174C36.3496 16.4164 36.3423 16.4135 36.336 16.4089C36.3298 16.4044 36.3247 16.3984 36.3214 16.3915L35.861 15.4517C35.7955 15.3161 35.6929 15.2017 35.5651 15.1219C35.4373 15.042 35.2895 15 35.1389 15.0005C34.9881 14.9998 34.8398 15.0418 34.7119 15.1216C34.584 15.2014 34.4812 15.3157 34.4154 15.4514L33.9555 16.3911C33.9521 16.398 33.9471 16.404 33.9409 16.4085C33.9347 16.413 33.9275 16.4159 33.9199 16.417L32.8838 16.5639C32.7347 16.5851 32.5945 16.6477 32.4792 16.7446C32.3639 16.8416 32.2781 16.9689 32.2315 17.1121C32.185 17.2554 32.1796 17.4088 32.216 17.555C32.2523 17.7012 32.329 17.8342 32.4372 17.939L33.1887 18.6665C33.1944 18.6719 33.1986 18.6785 33.201 18.6859C33.2034 18.6932 33.2039 18.7011 33.2025 18.7087L33.0222 19.7396C32.9957 19.8881 33.0115 20.0411 33.0678 20.181C33.1241 20.3209 33.2187 20.4422 33.3407 20.5308C33.4627 20.6195 33.6072 20.6721 33.7577 20.6824C33.9082 20.6928 34.0585 20.6606 34.1916 20.5896L35.1167 20.0993C35.1235 20.0959 35.1311 20.0941 35.1387 20.0942C35.1464 20.0942 35.1539 20.0961 35.1607 20.0996L36.0851 20.5892C36.2181 20.6599 36.3683 20.6918 36.5186 20.6813C36.6688 20.6708 36.8132 20.6183 36.9351 20.5298C37.057 20.4413 37.1516 20.3203 37.2081 20.1807C37.2646 20.041 37.2808 19.8883 37.2548 19.74L37.0742 18.7086C37.0729 18.7011 37.0735 18.6935 37.0759 18.6862C37.0783 18.679 37.0824 18.6725 37.0879 18.6672L37.8394 17.9394C37.9476 17.8346 38.0243 17.7016 38.0606 17.5554C38.097 17.4093 38.0916 17.2559 38.0451 17.1126C37.9986 16.9694 37.9129 16.8421 37.7976 16.7451C37.6824 16.6482 37.5422 16.5855 37.3931 16.5643Z" fill="#06B6D4"/>
<path d="M30.201 16.5643L29.1651 16.4174C29.1574 16.4164 29.1501 16.4135 29.1439 16.409C29.1376 16.4044 29.1326 16.3984 29.1292 16.3915L28.6689 15.4518C28.6033 15.3161 28.5007 15.2018 28.3729 15.1219C28.2451 15.0421 28.0974 15 27.9467 15.0005C27.7959 14.9999 27.6477 15.0419 27.5197 15.1216C27.3918 15.2014 27.289 15.3157 27.2233 15.4514L26.7633 16.3911C26.76 16.398 26.755 16.404 26.7488 16.4085C26.7426 16.413 26.7354 16.416 26.7278 16.4171L25.6916 16.564C25.5425 16.5851 25.4023 16.6478 25.287 16.7447C25.1717 16.8416 25.0859 16.9689 25.0394 17.1122C24.9928 17.2554 24.9874 17.4089 25.0238 17.555C25.0601 17.7012 25.1368 17.8343 25.245 17.939L25.9966 18.6666C26.0022 18.6719 26.0064 18.6785 26.0088 18.6859C26.0112 18.6933 26.0117 18.7011 26.0103 18.7087L25.8301 19.7397C25.8035 19.8881 25.8193 20.0411 25.8756 20.181C25.932 20.3209 26.0265 20.4422 26.1485 20.5309C26.2705 20.6195 26.415 20.6721 26.5655 20.6825C26.716 20.6929 26.8664 20.6607 26.9994 20.5896L27.9245 20.0993C27.9313 20.0959 27.9389 20.0941 27.9465 20.0942C27.9542 20.0943 27.9617 20.0961 27.9685 20.0996L28.8929 20.5892C29.0259 20.6599 29.1761 20.6918 29.3264 20.6813C29.4767 20.6708 29.621 20.6183 29.7429 20.5298C29.8648 20.4413 29.9594 20.3203 30.0159 20.1807C30.0724 20.0411 30.0886 19.8884 30.0626 19.74L29.882 18.7087C29.8808 18.7012 29.8813 18.6935 29.8837 18.6863C29.8861 18.679 29.8902 18.6725 29.8957 18.6672L30.6473 17.9394C30.7555 17.8346 30.8321 17.7016 30.8685 17.5555C30.9048 17.4093 30.8995 17.2559 30.853 17.1127C30.8065 16.9694 30.7207 16.8421 30.6055 16.7451C30.4902 16.6482 30.3501 16.5856 30.201 16.5643Z" fill="#06B6D4"/>
<path d="M37.1368 24.238C36.9844 24.0856 36.7777 24 36.5623 24H26.8123C26.5968 24 26.3901 24.0856 26.2377 24.238C26.0854 24.3903 25.9998 24.597 25.9998 24.8125C25.9998 25.028 26.0854 25.2347 26.2377 25.387C26.3901 25.5394 26.5968 25.625 26.8123 25.625H36.5623C36.7777 25.625 36.9844 25.5394 37.1368 25.387C37.2892 25.2347 37.3748 25.028 37.3748 24.8125C37.3748 24.597 37.2892 24.3903 37.1368 24.238Z" fill="#06B6D4"/>
<path d="M37.1368 27.488C37.2892 27.6403 37.3748 27.847 37.3748 28.0625C37.3748 28.278 37.2892 28.4847 37.1368 28.637C36.9844 28.7894 36.7777 28.875 36.5623 28.875H26.8123C26.5968 28.875 26.3901 28.7894 26.2377 28.637C26.0854 28.4847 25.9998 28.278 25.9998 28.0625C25.9998 27.847 26.0854 27.6403 26.2377 27.488C26.3901 27.3356 26.5968 27.25 26.8123 27.25H36.5623C36.7777 27.25 36.9844 27.3356 37.1368 27.488Z" fill="#06B6D4"/>
<path d="M37.1368 30.738C36.9844 30.5856 36.7777 30.5 36.5623 30.5H26.8123C26.5968 30.5 26.3901 30.5856 26.2377 30.738C26.0854 30.8903 25.9998 31.097 25.9998 31.3125C25.9998 31.528 26.0854 31.7347 26.2377 31.887C26.3901 32.0394 26.5968 32.125 26.8123 32.125H36.5623C36.7777 32.125 36.9844 32.0394 37.1368 31.887C37.2892 31.7347 37.3748 31.528 37.3748 31.3125C37.3748 31.097 37.2892 30.8903 37.1368 30.738Z" fill="#06B6D4"/>
</svg>
